<svg width="51" height="49" viewBox="0 0 51 49" fill="none" xmlns="http://www.w3.org/2000/svg">
<g id="Group">
<path id="Vector" d="M15.1645 17.9516L15.9534 17.7644V30.4788L13.6561 32.686L11.3588 31.4925V22.7669C11.3583 20.4738 12.9337 18.4808 15.1645 17.9516ZM3.03783 26.0421L0 25.591L3.00438 27.152L7.59899 29.539V21.5813L6.81015 21.7685C4.75767 22.2559 3.26361 23.9832 3.03783 26.0421ZM26.4782 20.366L24.3068 21.3542V13.947L23.518 14.1342C21.2871 14.6638 19.7122 16.6564 19.7122 18.9491V26.8663L24.3068 22.4519L26.4782 20.366Z" fill="#0874F2"/>
<path id="Vector_2" d="M15.1645 17.9516L15.9534 17.7644V30.4788L13.6561 32.686L11.3588 31.4925V22.7669C11.3583 20.4738 12.9337 18.4808 15.1645 17.9516ZM3.03783 26.0421L0 25.591L3.00438 27.152L7.59899 29.539V21.5813L6.81015 21.7685C4.75767 22.2559 3.26361 23.9832 3.03783 26.0421ZM26.4782 20.366L24.3068 21.3542V13.947L23.518 14.1342C21.2871 14.6638 19.7122 16.6564 19.7122 18.9491V26.8663L24.3068 22.4519L26.4782 20.366Z" fill="url(#paint0_linear_11_2921)"/>
<path id="Vector_3" d="M0 28.863L13.6556 48.5L50.5607 0.5L13.6556 35.9575L0 28.863Z" fill="#0874F2"/>
<path id="Vector_4" d="M0 28.863L13.6556 48.5L50.5607 0.5L13.6556 35.9575L0 28.863Z" fill="url(#paint1_linear_11_2921)"/>
</g>
<defs>
<linearGradient id="paint0_linear_11_2921" x1="14.2191" y1="38.2198" x2="13.1534" y2="21.6422" gradientUnits="userSpaceOnUse">
<stop stop-color="#0874F2"/>
<stop offset="1" stop-color="#0874F2" stop-opacity="0"/>
</linearGradient>
<linearGradient id="paint1_linear_11_2921" x1="28.299" y1="61.6366" x2="25.6056" y2="19.7402" gradientUnits="userSpaceOnUse">
<stop stop-color="#0874F2"/>
<stop offset="1" stop-color="#0874F2" stop-opacity="0"/>
</linearGradient>
</defs>
</svg>
